<svg width="35" height="42" viewBox="0 0 35 42" fill="none" xmlns="http://www.w3.org/2000/svg">
<path d="M15.7104 4.33342C12.4146 4.33342 10.7375 4.6855 9.19375 5.5105C7.9063 6.18789 6.85448 7.23971 6.17708 8.52717C5.35208 10.0688 5 11.748 5 15.0417V26.9543C5 30.2501 5.35208 31.9272 6.17708 33.4709C6.87917 34.7834 7.88125 35.7855 9.19375 36.4876C10.7354 37.3126 12.4146 37.6647 15.7104 37.6647H19.2896C22.5854 37.6647 24.2625 37.3126 25.8062 36.4876C27.0937 35.8102 28.1455 34.7584 28.8229 33.4709C29.6479 31.9293 30 30.2501 30 26.9543V15.0417C30 11.7459 29.6479 10.0688 28.8229 8.52508C28.1455 7.23763 27.0937 6.18581 25.8062 5.50842C24.2646 4.6855 22.5854 4.33342 19.2917 4.33342H15.7083H15.7104ZM15.7104 0.166748H19.2896C23.4854 0.166748 25.7354 0.745915 27.7729 1.8355C29.7861 2.9011 31.4323 4.54736 32.4979 6.5605C33.5875 8.598 34.1667 10.848 34.1667 15.0438V26.9563C34.1667 31.1522 33.5875 33.4022 32.4979 35.4397C31.4323 37.4528 29.7861 39.0991 27.7729 40.1647C25.7354 41.2542 23.4854 41.8334 19.2896 41.8334H15.7083C11.5125 41.8334 9.2625 41.2542 7.225 40.1647C5.21186 39.0991 3.5656 37.4528 2.5 35.4397C1.4125 33.4022 0.833332 31.1522 0.833332 26.9563V15.0417C0.833332 10.8459 1.4125 8.59592 2.50208 6.55841C3.56857 4.54574 5.21555 2.90021 7.22917 1.8355C9.26458 0.745915 11.5146 0.166748 15.7104 0.166748ZM15.4167 10.5001C15.4167 9.39551 16.3121 8.50008 17.4167 8.50008H17.5833C18.6879 8.50008 19.5833 9.39551 19.5833 10.5001V16.9167C19.5833 18.0213 18.6879 18.9167 17.5833 18.9167H17.4167C16.3121 18.9167 15.4167 18.0213 15.4167 16.9168V10.5001Z" fill="black"/>
</svg>
